<svg aria-hidden="true" style="width:0;height:0;position:absolute;overflow:hidden" xmlns="http://www.w3.org/2000/svg"><defs><symbol id="icon-logo" viewBox="0 0 32 32"><path stroke-linejoin="round" stroke-linecap="round" stroke-width="2.667" d="M26.427 2.667H5.574a2.907 2.907 0 0 0-2.907 2.907v20.853a2.907 2.907 0 0 0 2.907 2.907h20.853a2.907 2.907 0 0 0 2.907-2.907V5.574a2.907 2.907 0 0 0-2.907-2.907zM9.333 2.667v26.667M22.667 2.667v26.667M2.667 16h26.667M2.667 9.333h6.667M2.667 22.667h6.667M22.667 22.667h6.667M22.667 9.333h6.667"/></symbol><symbol id="icon-heart" viewBox="0 0 34 32"><path fill="#ff6b08" style="fill:var(--color1,#ff6b08)" d="m17.231 31.705-2.412-2.412C5.859 21.367.001 16.025.001 9.478.001 4.136 4.136.001 9.478.001c2.929 0 5.858 1.378 7.754 3.618 1.895-2.24 4.825-3.618 7.754-3.618 5.342 0 9.477 4.135 9.477 9.477 0 6.548-5.858 11.889-14.818 19.815l-2.412 2.412z"/></symbol><symbol id="icon-movie-play" viewBox="0 0 32 32"><path d="M1.882 29.176h28.235l-.156-26.353H1.882v26.353zm18.824-24.47h1.882v1.882h-1.882V4.706zm5.647 3.765V23.53H5.647V8.471h20.706zM15.059 4.706h1.882v1.882h-1.882V4.706zm-5.647 0h1.882v1.882H9.412V4.706zm-5.647 0h1.882v1.882H3.765V4.706zm1.843 22.588H3.726v-1.882h1.882v1.882zm5.686 0H9.412v-1.882h1.882v1.882zm5.647 0h-1.882v-1.882h1.882v1.882zm5.647 0h-1.882v-1.882h1.882v1.882zm5.647 0h-1.882v-1.882h1.882v1.882zm0-20.706h-1.882V4.706h1.882v1.882z"/><path d="m13.182 19.511-.006-7.275 7.433 3.793-7.428 3.482z"/></symbol><symbol id="icon-movie-camera" viewBox="0 0 32 32"><path fill="#595858" style="fill:var(--color2,#595858)" d="m8 20-3-4H3a2 2 0 0 0-2 2v11a2 2 0 0 0 2 2h2l3-4h5v-7H8z"/><path fill="#3a3a3a" style="fill:var(--color3,#3a3a3a)" d="M4 16h.75v15H4z"/><path fill="#595858" style="fill:var(--color2,#595858)" d="M30.277 18.363 29 19h-4v3h4l1.277.637a.5.5 0 0 0 .723-.448v-3.38a.5.5 0 0 0-.723-.448z"/><path fill="#3f3f3f" style="fill:var(--color4,#3f3f3f)" d="M16 12h7v7h-7z"/><path fill="#787676" style="fill:var(--color5,#787676)" opacity=".5" d="M7.875 20h.75v7h-.75z"/><path fill="#3a3a3a" style="fill:var(--color3,#3a3a3a)" d="M10.188 20h.75v7h-.75z"/><path fill="#504f4f" style="fill:var(--color6,#504f4f)" d="M20 9A8 8 0 1 1 4 9a8 8 0 0 1 16 0z"/><path fill="#504f4f" style="fill:var(--color6,#504f4f)" d="M30.75 11.5a5.5 5.5 0 1 1-11 0 5.5 5.5 0 1 1 11 0z"/><path fill="#504f4f" style="fill:var(--color6,#504f4f)" d="M26 30H13a2 2 0 0 1-2-2v-9a2 2 0 0 1 2-2h13a2 2 0 0 1 2 2v9a2 2 0 0 1-2 2z"/><path fill="#3a3a3a" style="fill:var(--color3,#3a3a3a)" d="M13.5 23.5c.275 0 .5.225.5.5s-.225.5-.5.5-.5-.225-.5-.5.225-.5.5-.5zm0-.5a1 1 0 1 0 0 2 1 1 0 0 0 0-2zM13.5 25.5c.275 0 .5.225.5.5s-.225.5-.5.5-.5-.225-.5-.5.225-.5.5-.5zm0-.5a1 1 0 1 0 0 2 1 1 0 0 0 0-2z"/><path fill="#504f4f" style="fill:var(--color6,#504f4f)" d="M16 26.75a.752.752 0 0 1-.75-.75v-2c0-.413.338-.75.75-.75h8c.413 0 .75.337.75.75v2c0 .413-.337.75-.75.75h-8z"/><path fill="#3a3a3a" style="fill:var(--color3,#3a3a3a)" d="M24 23.625c.207 0 .375.168.375.375v2a.375.375 0 0 1-.375.375h-8a.375.375 0 0 1-.375-.375v-2c0-.207.168-.375.375-.375h8zm0-.75h-8c-.62 0-1.125.505-1.125 1.125v2c0 .62.505 1.125 1.125 1.125h8c.62 0 1.125-.505 1.125-1.125v-2c0-.62-.505-1.125-1.125-1.125z"/><path fill="#504f4f" style="fill:var(--color6,#504f4f)" d="M17.625 9a5.624 5.624 0 1 1-11.25 0 5.624 5.624 0 1 1 11.25 0z"/><path fill="#3a3a3a" style="fill:var(--color3,#3a3a3a)" d="M12 3.75c2.895 0 5.25 2.355 5.25 5.25s-2.355 5.25-5.25 5.25S6.75 11.895 6.75 9 9.105 3.75 12 3.75zM12 3C8.687 3 6 5.688 6 9s2.688 6 6 6 6-2.688 6-6-2.688-6-6-6z"/><path fill="#504f4f" style="fill:var(--color6,#504f4f)" d="M28.375 11.5a3.125 3.125 0 1 1-6.25 0 3.125 3.125 0 0 1 6.25 0z"/><path fill="#3a3a3a" style="fill:var(--color3,#3a3a3a)" d="M25.25 8.75c1.517 0 2.75 1.232 2.75 2.75s-1.233 2.75-2.75 2.75-2.75-1.232-2.75-2.75 1.233-2.75 2.75-2.75zm0-.75a3.5 3.5 0 1 0 0 7 3.5 3.5 0 0 0 0-7z"/><path fill="#636262" style="fill:var(--color7,#636262)" d="M14 9a2 2 0 1 1-3.999.001A2 2 0 0 1 14 9zM27.25 11.5a2 2 0 1 1-3.999.001 2 2 0 0 1 3.999-.001z"/><path style="fill:var(--color8,#000)" d="M14 24a.5.5 0 1 1-1 0 .5.5 0 0 1 1 0zM14 26a.5.5 0 1 1-1 0 .5.5 0 0 1 1 0z"/></symbol><symbol id="icon-google" viewBox="0 0 32 32"><path fill="#4285f4" style="fill:var(--color1,#4285f4)" d="M30.08 16.333c0-1.04-.093-2.04-.267-3H16v5.68h7.893c-.347 1.827-1.387 3.373-2.947 4.413v3.693h4.76c2.773-2.56 4.373-6.32 4.373-10.787z"/><path fill="#34a853" style="fill:var(--color2,#34a853)" d="M16 30.667c3.96 0 7.28-1.307 9.707-3.547l-4.76-3.693c-1.307.88-2.973 1.413-4.947 1.413-3.813 0-7.053-2.573-8.213-6.04h-4.88v3.787c2.413 4.787 7.36 8.08 13.093 8.08z"/><path fill="#fbbc05" style="fill:var(--color3,#fbbc05)" d="M7.787 18.787c-.293-.88-.467-1.813-.467-2.787s.173-1.907.467-2.787V9.426h-4.88c-1 1.973-1.573 4.2-1.573 6.573s.573 4.6 1.573 6.573l3.8-2.96 1.08-.827z"/><path fill="#ea4335" style="fill:var(--color4,#ea4335)" d="M16 7.173c2.16 0 4.08.747 5.613 2.187l4.2-4.2C23.266 2.787 19.96 1.333 16 1.333c-5.733 0-10.68 3.293-13.093 8.093l4.88 3.787c1.16-3.467 4.4-6.04 8.213-6.04z"/></symbol><symbol id="icon-fullscreen-exit" viewBox="0 0 32 32"><path d="M11 0a1 1 0 0 1 1 1v8a3 3 0 0 1-3 3H1a1 1 0 0 1 0-2h8a1 1 0 0 0 1-1V1a1 1 0 0 1 1-1zm10 0a1 1 0 0 1 1 1v8a1 1 0 0 0 1 1h8a1 1 0 0 1 0 2h-8a3 3 0 0 1-3-3V1a1 1 0 0 1 1-1zM0 21a1 1 0 0 1 1-1h8a3 3 0 0 1 3 3v8a1 1 0 0 1-2 0v-8a1 1 0 0 0-1-1H1a1 1 0 0 1-1-1zm20 2a3 3 0 0 1 3-3h8a1 1 0 0 1 0 2h-8a1 1 0 0 0-1 1v8a1 1 0 0 1-2 0v-8z"/></symbol><symbol id="icon-fullscreen" viewBox="0 0 32 32"><path d="M3 2a1 1 0 0 0-1 1v8a1 1 0 0 1-2 0V3a3 3 0 0 1 3-3h8a1 1 0 0 1 0 2H3zm17-1a1 1 0 0 1 1-1h8a3 3 0 0 1 3 3v8a1 1 0 0 1-2 0V3a1 1 0 0 0-1-1h-8a1 1 0 0 1-1-1zM1 20a1 1 0 0 1 1 1v8a1 1 0 0 0 1 1h8a1 1 0 0 1 0 2H3a3 3 0 0 1-3-3v-8a1 1 0 0 1 1-1zm30 0a1 1 0 0 1 1 1v8a3 3 0 0 1-3 3h-8a1 1 0 0 1 0-2h8a1 1 0 0 0 1-1v-8a1 1 0 0 1 1-1z"/></symbol><symbol id="icon-sun-fill" viewBox="0 0 32 32"><path d="M16.001 8a8 8 0 1 0 0 16 8 8 0 0 0 0-16zM14 2a2 2 0 1 1 3.999-.001A2 2 0 0 1 14 2zM4 6a2 2 0 1 1 3.999-.001A2 2 0 0 1 4 6zm-2 8a2 2 0 1 1 .001 3.999A2 2 0 0 1 2 14zm2 12a2 2 0 1 1 3.999-.001A2 2 0 0 1 4 26zm10 4c0-1.109.895-2 2-2 1.108 0 2 .891 2 2a2 2 0 1 1-4 0zm10-4a2 2 0 1 1 3.999-.001A2 2 0 0 1 24 26zm6-8a2 2 0 1 1 .001-4.001A2 2 0 0 1 30 18zM24 6a2 2 0 1 1 3.999-.001A2 2 0 0 1 24 6z"/></symbol><symbol id="icon-moon-fill" viewBox="0 0 32 32"><path d="M24.633 22.184c-8.188 0-14.82-6.637-14.82-14.82 0-2.695.773-5.188 2.031-7.363C5.02 1.969 0 8.188 0 15.645 0 24.676 7.32 32 16.352 32c7.457 0 13.68-5.023 15.648-11.844-2.18 1.254-4.672 2.028-7.367 2.028z"/></symbol><symbol id="icon-filter-list" viewBox="0 0 24 24"><path d="M6 12.984v-1.969h12v1.969H6zM3 6h18v2.016H3V6zm6.984 12v-2.016h4.031V18H9.984z"/></symbol><symbol id="icon-mail" viewBox="0 0 32 32"><path d="M4 4a4 4 0 0 0-4 4v16.02A4 4 0 0 0 4 28h11a1 1 0 0 0 0-2H4a2 2 0 0 1-1.928-1.468l-.003-.014 11.28-6.942 2.652 1.59 14-8.4V17a1 1 0 0 0 2 0V8a4 4 0 0 0-4-4h-24zm7.416 12.416L2 22.21V10.766l9.416 5.65zM2 8.434V8a2 2 0 0 1 2-2h24a2 2 0 0 1 2 2v.434l-14 8.4-14-8.4z"/><path d="M28.494 28.538c2.02 0 3.174-1.714 3.174-4.05v-.42C31.668 20.86 29.28 18 25.04 18h-.07C20.84 18 18 20.72 18 24.864v.428C18 29.64 20.876 32 24.716 32h.088c1.188 0 2.036-.148 2.474-.35v-1.46c-.49.22-1.346.36-2.36.36h-.088c-2.668 0-5.142-1.576-5.142-5.31v-.314c0-3.314 2.116-5.448 5.28-5.448h.08c3.07 0 4.968 2.1 4.968 4.652v.236c0 1.95-.648 2.78-1.278 2.78-.464 0-.82-.296-.82-.84v-4.38h-1.812v1.138h-.06c-.168-.596-.736-1.26-1.908-1.26-1.556 0-2.518 1.11-2.518 2.8v1.056c0 1.784.98 2.868 2.52 2.868.942 0 1.792-.454 2.028-1.286h.086c.236.84 1.234 1.296 2.24 1.296zm-4.906-3.176v-.454c0-1.092.454-1.582 1.146-1.582.594 0 1.144.384 1.144 1.416v.734c0 1.146-.506 1.488-1.128 1.488-.708 0-1.162-.43-1.162-1.6z"/></symbol><symbol id="icon-github" viewBox="0 0 32 32"><path d="M16 0C7.16 0 0 7.16 0 16c0 7.08 4.58 13.06 10.94 15.18.8.14 1.1-.34 1.1-.76 0-.38-.02-1.64-.02-2.98-4.02.74-5.06-.98-5.38-1.88-.18-.46-.96-1.88-1.64-2.26-.56-.3-1.36-1.04-.02-1.06 1.26-.02 2.16 1.16 2.46 1.64 1.44 2.42 3.74 1.74 4.66 1.32.14-1.04.56-1.74 1.02-2.14-3.56-.4-7.28-1.78-7.28-7.9 0-1.74.62-3.18 1.64-4.3-.16-.4-.72-2.04.16-4.24 0 0 1.34-.42 4.4 1.64 1.28-.36 2.64-.54 4-.54s2.72.18 4 .54c3.06-2.08 4.4-1.64 4.4-1.64.88 2.2.32 3.84.16 4.24 1.02 1.12 1.64 2.54 1.64 4.3 0 6.14-3.74 7.5-7.3 7.9.58.5 1.08 1.46 1.08 2.96 0 2.14-.02 3.86-.02 4.4 0 .42.3.92 1.1.76C27.49 28.977 31.999 23.015 32 16c0-8.84-7.16-16-16-16z"/></symbol><symbol id="icon-linkedin" viewBox="0 0 32 32"><path d="M0 2.292C0 1.026 1.052 0 2.35 0h27.3C30.948 0 32 1.026 32 2.292v27.416C32 30.974 30.948 32 29.65 32H2.35C1.052 32 0 30.974 0 29.708V2.292zm9.886 24.496v-14.45H5.084v14.45h4.802zm-2.4-16.424c1.674 0 2.716-1.108 2.716-2.496-.03-1.418-1.04-2.496-2.684-2.496S4.8 6.452 4.8 7.868c0 1.388 1.042 2.496 2.654 2.496h.032zm9.816 16.424v-8.07c0-.432.032-.864.16-1.172.346-.862 1.136-1.756 2.464-1.756 1.738 0 2.432 1.324 2.432 3.268v7.73h4.802V18.5c0-4.44-2.368-6.504-5.528-6.504-2.548 0-3.69 1.4-4.33 2.386v.05h-.032l.058-.093-.026.043v-2.044h-4.8c.06 1.356 0 14.45 0 14.45h4.8z"/></symbol><symbol id="icon-close" viewBox="0 0 32 32"><path stroke-width="2.133" d="m8.533 8.533 14.933 14.933M8.533 23.467 23.466 8.534"/></symbol></defs></svg>