<svg aria-hidden="true" style="width:0;height:0;position:absolute;overflow:hidden" xmlns="http://www.w3.org/2000/svg"><defs><symbol id="icon-logo" viewBox="0 0 32 32"><path stroke-linejoin="round" stroke-linecap="round" stroke-width="2.667" d="M26.427 2.667H5.574a2.907 2.907 0 0 0-2.907 2.907v20.853a2.907 2.907 0 0 0 2.907 2.907h20.853a2.907 2.907 0 0 0 2.907-2.907V5.574a2.907 2.907 0 0 0-2.907-2.907zM9.333 2.667v26.667M22.667 2.667v26.667M2.667 16h26.667M2.667 9.333h6.667M2.667 22.667h6.667M22.667 22.667h6.667M22.667 9.333h6.667"/></symbol><symbol id="icon-heart" viewBox="0 0 34 32"><path fill="#ff6b08" style="fill:var(--color1,#ff6b08)" d="m17.231 31.705-2.412-2.412C5.859 21.367.001 16.025.001 9.478.001 4.136 4.136.001 9.478.001c2.929 0 5.858 1.378 7.754 3.618 1.895-2.24 4.825-3.618 7.754-3.618 5.342 0 9.477 4.135 9.477 9.477 0 6.548-5.858 11.889-14.818 19.815l-2.412 2.412z"/></symbol><symbol id="icon-movie-play" viewBox="0 0 32 32"><path d="M1.882 29.176h28.235l-.156-26.353H1.882v26.353zm18.824-24.47h1.882v1.882h-1.882V4.706zm5.647 3.765V23.53H5.647V8.471h20.706zM15.059 4.706h1.882v1.882h-1.882V4.706zm-5.647 0h1.882v1.882H9.412V4.706zm-5.647 0h1.882v1.882H3.765V4.706zm1.843 22.588H3.726v-1.882h1.882v1.882zm5.686 0H9.412v-1.882h1.882v1.882zm5.647 0h-1.882v-1.882h1.882v1.882zm5.647 0h-1.882v-1.882h1.882v1.882zm5.647 0h-1.882v-1.882h1.882v1.882zm0-20.706h-1.882V4.706h1.882v1.882z"/><path d="m13.182 19.511-.006-7.275 7.433 3.793-7.428 3.482z"/></symbol><symbol id="icon-movie-camera" viewBox="0 0 32 32"><path fill="#595858" style="fill:var(--color2,#595858)" d="m8 20-3-4H3a2 2 0 0 0-2 2v11a2 2 0 0 0 2 2h2l3-4h5v-7H8z"/><path fill="#3a3a3a" style="fill:var(--color3,#3a3a3a)" d="M4 16h.75v15H4z"/><path fill="#595858" style="fill:var(--color2,#595858)" d="M30.277 18.363 29 19h-4v3h4l1.277.637a.5.5 0 0 0 .723-.448v-3.38a.5.5 0 0 0-.723-.448z"/><path fill="#3f3f3f" style="fill:var(--color4,#3f3f3f)" d="M16 12h7v7h-7z"/><path fill="#787676" style="fill:var(--color5,#787676)" opacity=".5" d="M7.875 20h.75v7h-.75z"/><path fill="#3a3a3a" style="fill:var(--color3,#3a3a3a)" d="M10.188 20h.75v7h-.75z"/><path fill="#504f4f" style="fill:var(--color6,#504f4f)" d="M20 9A8 8 0 1 1 4 9a8 8 0 0 1 16 0z"/><path fill="#504f4f" style="fill:var(--color6,#504f4f)" d="M30.75 11.5a5.5 5.5 0 1 1-11 0 5.5 5.5 0 1 1 11 0z"/><path fill="#504f4f" style="fill:var(--color6,#504f4f)" d="M26 30H13a2 2 0 0 1-2-2v-9a2 2 0 0 1 2-2h13a2 2 0 0 1 2 2v9a2 2 0 0 1-2 2z"/><path fill="#3a3a3a" style="fill:var(--color3,#3a3a3a)" d="M13.5 23.5c.275 0 .5.225.5.5s-.225.5-.5.5-.5-.225-.5-.5.225-.5.5-.5zm0-.5a1 1 0 1 0 0 2 1 1 0 0 0 0-2zM13.5 25.5c.275 0 .5.225.5.5s-.225.5-.5.5-.5-.225-.5-.5.225-.5.5-.5zm0-.5a1 1 0 1 0 0 2 1 1 0 0 0 0-2z"/><path fill="#504f4f" style="fill:var(--color6,#504f4f)" d="M16 26.75a.752.752 0 0 1-.75-.75v-2c0-.413.338-.75.75-.75h8c.413 0 .75.337.75.75v2c0 .413-.337.75-.75.75h-8z"/><path fill="#3a3a3a" style="fill:var(--color3,#3a3a3a)" d="M24 23.625c.207 0 .375.168.375.375v2a.375.375 0 0 1-.375.375h-8a.375.375 0 0 1-.375-.375v-2c0-.207.168-.375.375-.375h8zm0-.75h-8c-.62 0-1.125.505-1.125 1.125v2c0 .62.505 1.125 1.125 1.125h8c.62 0 1.125-.505 1.125-1.125v-2c0-.62-.505-1.125-1.125-1.125z"/><path fill="#504f4f" style="fill:var(--color6,#504f4f)" d="M17.625 9a5.624 5.624 0 1 1-11.25 0 5.624 5.624 0 1 1 11.25 0z"/><path fill="#3a3a3a" style="fill:var(--color3,#3a3a3a)" d="M12 3.75c2.895 0 5.25 2.355 5.25 5.25s-2.355 5.25-5.25 5.25S6.75 11.895 6.75 9 9.105 3.75 12 3.75zM12 3C8.687 3 6 5.688 6 9s2.688 6 6 6 6-2.688 6-6-2.688-6-6-6z"/><path fill="#504f4f" style="fill:var(--color6,#504f4f)" d="M28.375 11.5a3.125 3.125 0 1 1-6.25 0 3.125 3.125 0 0 1 6.25 0z"/><path fill="#3a3a3a" style="fill:var(--color3,#3a3a3a)" d="M25.25 8.75c1.517 0 2.75 1.232 2.75 2.75s-1.233 2.75-2.75 2.75-2.75-1.232-2.75-2.75 1.233-2.75 2.75-2.75zm0-.75a3.5 3.5 0 1 0 0 7 3.5 3.5 0 0 0 0-7z"/><path fill="#636262" style="fill:var(--color7,#636262)" d="M14 9a2 2 0 1 1-3.999.001A2 2 0 0 1 14 9zM27.25 11.5a2 2 0 1 1-3.999.001 2 2 0 0 1 3.999-.001z"/><path style="fill:var(--color8,#000)" d="M14 24a.5.5 0 1 1-1 0 .5.5 0 0 1 1 0zM14 26a.5.5 0 1 1-1 0 .5.5 0 0 1 1 0z"/></symbol></defs></svg>