<!-- Generated by IcoMoon.io -->
<svg version="1.1" xmlns="http://www.w3.org/2000/svg" width="32" height="32" viewBox="0 0 32 32">
<title>movie-play</title>
<path d="M1.882 29.176h28.235l-0.156-26.353h-28.079v26.353zM20.706 4.706h1.882v1.882h-1.882v-1.882zM26.353 8.471v15.059h-20.706v-15.059h20.706zM15.059 4.706h1.882v1.882h-1.882v-1.882zM9.412 4.706h1.882v1.882h-1.882v-1.882zM3.765 4.706h1.882v1.882h-1.882v-1.882zM5.608 27.294h-1.882v-1.882h1.882v1.882zM11.294 27.294h-1.882v-1.882h1.882v1.882zM16.941 27.294h-1.882v-1.882h1.882v1.882zM22.588 27.294h-1.882v-1.882h1.882v1.882zM28.235 27.294h-1.882v-1.882h1.882v1.882zM28.235 6.588h-1.882v-1.882h1.882v1.882z"></path>
<path d="M13.182 19.511l-0.006-7.275 7.433 3.793-7.428 3.482z"></path>
</svg>
