<!-- Generated by IcoMoon.io -->
<svg version="1.1" xmlns="http://www.w3.org/2000/svg" width="32" height="32" viewBox="0 0 32 32">
<title>movie-camera</title>
<path fill="#595858" d="M8 20l-3-4h-2c-1.105 0-2 0.895-2 2v11c0 1.105 0.895 2 2 2h2l3-4h5v-7h-5z"></path>
<path fill="#3a3a3a" d="M4 16h0.75v15h-0.75z"></path>
<path fill="#595858" d="M30.277 18.363l-1.277 0.637h-4v3h4l1.277 0.637c0.332 0.165 0.723-0.075 0.723-0.448v-3.38c0-0.372-0.39-0.615-0.723-0.448z"></path>
<path fill="#3f3f3f" d="M16 12h7v7h-7z"></path>
<path fill="#787676" opacity="0.5" d="M7.875 20h0.75v7h-0.75z"></path>
<path fill="#3a3a3a" d="M10.188 20h0.75v7h-0.75z"></path>
<path fill="#504f4f" d="M20 9c0 4.418-3.582 8-8 8s-8-3.582-8-8c0-4.418 3.582-8 8-8s8 3.582 8 8z"></path>
<path fill="#504f4f" d="M30.75 11.5c0 3.038-2.462 5.5-5.5 5.5s-5.5-2.462-5.5-5.5c0-3.038 2.462-5.5 5.5-5.5s5.5 2.462 5.5 5.5z"></path>
<path fill="#504f4f" d="M26 30h-13c-1.105 0-2-0.895-2-2v-9c0-1.105 0.895-2 2-2h13c1.105 0 2 0.895 2 2v9c0 1.105-0.895 2-2 2z"></path>
<path fill="#3a3a3a" d="M13.5 23.5c0.275 0 0.5 0.225 0.5 0.5s-0.225 0.5-0.5 0.5-0.5-0.225-0.5-0.5 0.225-0.5 0.5-0.5zM13.5 23c-0.553 0-1 0.448-1 1s0.447 1 1 1 1-0.448 1-1-0.447-1-1-1z"></path>
<path fill="#3a3a3a" d="M13.5 25.5c0.275 0 0.5 0.225 0.5 0.5s-0.225 0.5-0.5 0.5-0.5-0.225-0.5-0.5 0.225-0.5 0.5-0.5zM13.5 25c-0.553 0-1 0.448-1 1s0.447 1 1 1 1-0.448 1-1-0.447-1-1-1z"></path>
<path fill="#504f4f" d="M16 26.75c-0.412 0-0.75-0.337-0.75-0.75v-2c0-0.413 0.338-0.75 0.75-0.75h8c0.413 0 0.75 0.337 0.75 0.75v2c0 0.413-0.337 0.75-0.75 0.75h-8z"></path>
<path fill="#3a3a3a" d="M24 23.625c0.207 0 0.375 0.168 0.375 0.375v2c0 0.207-0.168 0.375-0.375 0.375h-8c-0.207 0-0.375-0.168-0.375-0.375v-2c0-0.207 0.168-0.375 0.375-0.375h8zM24 22.875h-8c-0.62 0-1.125 0.505-1.125 1.125v2c0 0.62 0.505 1.125 1.125 1.125h8c0.62 0 1.125-0.505 1.125-1.125v-2c0-0.62-0.505-1.125-1.125-1.125z"></path>
<path fill="#504f4f" d="M17.625 9c0 3.107-2.518 5.625-5.625 5.625s-5.625-2.518-5.625-5.625c0-3.107 2.518-5.625 5.625-5.625s5.625 2.518 5.625 5.625z"></path>
<path fill="#3a3a3a" d="M12 3.75c2.895 0 5.25 2.355 5.25 5.25s-2.355 5.25-5.25 5.25-5.25-2.355-5.25-5.25 2.355-5.25 5.25-5.25zM12 3c-3.313 0-6 2.688-6 6s2.688 6 6 6 6-2.688 6-6-2.688-6-6-6z"></path>
<path fill="#504f4f" d="M28.375 11.5c0 1.726-1.399 3.125-3.125 3.125s-3.125-1.399-3.125-3.125c0-1.726 1.399-3.125 3.125-3.125s3.125 1.399 3.125 3.125z"></path>
<path fill="#3a3a3a" d="M25.25 8.75c1.517 0 2.75 1.232 2.75 2.75s-1.233 2.75-2.75 2.75-2.75-1.232-2.75-2.75 1.233-2.75 2.75-2.75zM25.25 8c-1.933 0-3.5 1.567-3.5 3.5s1.567 3.5 3.5 3.5 3.5-1.567 3.5-3.5-1.567-3.5-3.5-3.5z"></path>
<path fill="#636262" d="M14 9c0 1.105-0.895 2-2 2s-2-0.895-2-2c0-1.105 0.895-2 2-2s2 0.895 2 2z"></path>
<path fill="#636262" d="M27.25 11.5c0 1.105-0.895 2-2 2s-2-0.895-2-2c0-1.105 0.895-2 2-2s2 0.895 2 2z"></path>
<path fill="#000" d="M14 24c0 0.276-0.224 0.5-0.5 0.5s-0.5-0.224-0.5-0.5c0-0.276 0.224-0.5 0.5-0.5s0.5 0.224 0.5 0.5z"></path>
<path fill="#000" d="M14 26c0 0.276-0.224 0.5-0.5 0.5s-0.5-0.224-0.5-0.5c0-0.276 0.224-0.5 0.5-0.5s0.5 0.224 0.5 0.5z"></path>
</svg>
