<svg aria-hidden="true" style="position: absolute; width: 0; height: 0; overflow: hidden;" version="1.1" xmlns="http://www.w3.org/2000/svg" xmlns:xlink="http://www.w3.org/1999/xlink">
<defs>
<symbol id="icon-logo" viewBox="0 0 32 32">
<path stroke-linejoin="round" stroke-linecap="round" stroke-miterlimit="4" stroke-width="2.6667" d="M26.427 2.667h-20.853c-1.605 0-2.907 1.301-2.907 2.907v20.853c0 1.605 1.301 2.907 2.907 2.907h20.853c1.605 0 2.907-1.301 2.907-2.907v-20.853c0-1.605-1.301-2.907-2.907-2.907z"></path>
<path stroke-linejoin="round" stroke-linecap="round" stroke-miterlimit="4" stroke-width="2.6667" d="M9.333 2.667v26.667"></path>
<path stroke-linejoin="round" stroke-linecap="round" stroke-miterlimit="4" stroke-width="2.6667" d="M22.667 2.667v26.667"></path>
<path stroke-linejoin="round" stroke-linecap="round" stroke-miterlimit="4" stroke-width="2.6667" d="M2.667 16h26.667"></path>
<path stroke-linejoin="round" stroke-linecap="round" stroke-miterlimit="4" stroke-width="2.6667" d="M2.667 9.333h6.667"></path>
<path stroke-linejoin="round" stroke-linecap="round" stroke-miterlimit="4" stroke-width="2.6667" d="M2.667 22.667h6.667"></path>
<path stroke-linejoin="round" stroke-linecap="round" stroke-miterlimit="4" stroke-width="2.6667" d="M22.667 22.667h6.667"></path>
<path stroke-linejoin="round" stroke-linecap="round" stroke-miterlimit="4" stroke-width="2.6667" d="M22.667 9.333h6.667"></path>
</symbol>

<symbol id="icon-heart" viewBox="0 0 34 32">
<path fill="#ff6b08" style="fill: var(--color1, #ff6b08)" d="M17.231 31.705l-2.412-2.412c-8.96-7.926-14.818-13.268-14.818-19.815 0-5.342 4.135-9.477 9.477-9.477 2.929 0 5.858 1.378 7.754 3.618 1.895-2.24 4.825-3.618 7.754-3.618 5.342 0 9.477 4.135 9.477 9.477 0 6.548-5.858 11.889-14.818 19.815l-2.412 2.412z"></path>
</symbol>

<symbol id="icon-movie-play" viewBox="0 0 32 32">
<path d="M1.882 29.176h28.235l-0.156-26.353h-28.079v26.353zM20.706 4.706h1.882v1.882h-1.882v-1.882zM26.353 8.471v15.059h-20.706v-15.059h20.706zM15.059 4.706h1.882v1.882h-1.882v-1.882zM9.412 4.706h1.882v1.882h-1.882v-1.882zM3.765 4.706h1.882v1.882h-1.882v-1.882zM5.608 27.294h-1.882v-1.882h1.882v1.882zM11.294 27.294h-1.882v-1.882h1.882v1.882zM16.941 27.294h-1.882v-1.882h1.882v1.882zM22.588 27.294h-1.882v-1.882h1.882v1.882zM28.235 27.294h-1.882v-1.882h1.882v1.882zM28.235 6.588h-1.882v-1.882h1.882v1.882z"></path>
<path d="M13.182 19.511l-0.006-7.275 7.433 3.793-7.428 3.482z"></path>
</symbol>

<symbol id="icon-movie-camera" viewBox="0 0 32 32">
<path fill="#595858" style="fill: var(--color2, #595858)" d="M8 20l-3-4h-2c-1.105 0-2 0.895-2 2v11c0 1.105 0.895 2 2 2h2l3-4h5v-7h-5z"></path>
<path fill="#3a3a3a" style="fill: var(--color3, #3a3a3a)" d="M4 16h0.75v15h-0.75z"></path>
<path fill="#595858" style="fill: var(--color2, #595858)" d="M30.277 18.363l-1.277 0.637h-4v3h4l1.277 0.637c0.332 0.165 0.723-0.075 0.723-0.448v-3.38c0-0.372-0.39-0.615-0.723-0.448z"></path>
<path fill="#3f3f3f" style="fill: var(--color4, #3f3f3f)" d="M16 12h7v7h-7z"></path>
<path fill="#787676" style="fill: var(--color5, #787676)" opacity="0.5" d="M7.875 20h0.75v7h-0.75z"></path>
<path fill="#3a3a3a" style="fill: var(--color3, #3a3a3a)" d="M10.188 20h0.75v7h-0.75z"></path>
<path fill="#504f4f" style="fill: var(--color6, #504f4f)" d="M20 9c0 4.418-3.582 8-8 8s-8-3.582-8-8c0-4.418 3.582-8 8-8s8 3.582 8 8z"></path>
<path fill="#504f4f" style="fill: var(--color6, #504f4f)" d="M30.75 11.5c0 3.038-2.462 5.5-5.5 5.5s-5.5-2.462-5.5-5.5c0-3.038 2.462-5.5 5.5-5.5s5.5 2.462 5.5 5.5z"></path>
<path fill="#504f4f" style="fill: var(--color6, #504f4f)" d="M26 30h-13c-1.105 0-2-0.895-2-2v-9c0-1.105 0.895-2 2-2h13c1.105 0 2 0.895 2 2v9c0 1.105-0.895 2-2 2z"></path>
<path fill="#3a3a3a" style="fill: var(--color3, #3a3a3a)" d="M13.5 23.5c0.275 0 0.5 0.225 0.5 0.5s-0.225 0.5-0.5 0.5-0.5-0.225-0.5-0.5 0.225-0.5 0.5-0.5zM13.5 23c-0.553 0-1 0.448-1 1s0.447 1 1 1 1-0.448 1-1-0.447-1-1-1z"></path>
<path fill="#3a3a3a" style="fill: var(--color3, #3a3a3a)" d="M13.5 25.5c0.275 0 0.5 0.225 0.5 0.5s-0.225 0.5-0.5 0.5-0.5-0.225-0.5-0.5 0.225-0.5 0.5-0.5zM13.5 25c-0.553 0-1 0.448-1 1s0.447 1 1 1 1-0.448 1-1-0.447-1-1-1z"></path>
<path fill="#504f4f" style="fill: var(--color6, #504f4f)" d="M16 26.75c-0.412 0-0.75-0.337-0.75-0.75v-2c0-0.413 0.338-0.75 0.75-0.75h8c0.413 0 0.75 0.337 0.75 0.75v2c0 0.413-0.337 0.75-0.75 0.75h-8z"></path>
<path fill="#3a3a3a" style="fill: var(--color3, #3a3a3a)" d="M24 23.625c0.207 0 0.375 0.168 0.375 0.375v2c0 0.207-0.168 0.375-0.375 0.375h-8c-0.207 0-0.375-0.168-0.375-0.375v-2c0-0.207 0.168-0.375 0.375-0.375h8zM24 22.875h-8c-0.62 0-1.125 0.505-1.125 1.125v2c0 0.62 0.505 1.125 1.125 1.125h8c0.62 0 1.125-0.505 1.125-1.125v-2c0-0.62-0.505-1.125-1.125-1.125z"></path>
<path fill="#504f4f" style="fill: var(--color6, #504f4f)" d="M17.625 9c0 3.107-2.518 5.625-5.625 5.625s-5.625-2.518-5.625-5.625c0-3.107 2.518-5.625 5.625-5.625s5.625 2.518 5.625 5.625z"></path>
<path fill="#3a3a3a" style="fill: var(--color3, #3a3a3a)" d="M12 3.75c2.895 0 5.25 2.355 5.25 5.25s-2.355 5.25-5.25 5.25-5.25-2.355-5.25-5.25 2.355-5.25 5.25-5.25zM12 3c-3.313 0-6 2.688-6 6s2.688 6 6 6 6-2.688 6-6-2.688-6-6-6z"></path>
<path fill="#504f4f" style="fill: var(--color6, #504f4f)" d="M28.375 11.5c0 1.726-1.399 3.125-3.125 3.125s-3.125-1.399-3.125-3.125c0-1.726 1.399-3.125 3.125-3.125s3.125 1.399 3.125 3.125z"></path>
<path fill="#3a3a3a" style="fill: var(--color3, #3a3a3a)" d="M25.25 8.75c1.517 0 2.75 1.232 2.75 2.75s-1.233 2.75-2.75 2.75-2.75-1.232-2.75-2.75 1.233-2.75 2.75-2.75zM25.25 8c-1.933 0-3.5 1.567-3.5 3.5s1.567 3.5 3.5 3.5 3.5-1.567 3.5-3.5-1.567-3.5-3.5-3.5z"></path>
<path fill="#636262" style="fill: var(--color7, #636262)" d="M14 9c0 1.105-0.895 2-2 2s-2-0.895-2-2c0-1.105 0.895-2 2-2s2 0.895 2 2z"></path>
<path fill="#636262" style="fill: var(--color7, #636262)" d="M27.25 11.5c0 1.105-0.895 2-2 2s-2-0.895-2-2c0-1.105 0.895-2 2-2s2 0.895 2 2z"></path>
<path fill="#000" style="fill: var(--color8, #000)" d="M14 24c0 0.276-0.224 0.5-0.5 0.5s-0.5-0.224-0.5-0.5c0-0.276 0.224-0.5 0.5-0.5s0.5 0.224 0.5 0.5z"></path>
<path fill="#000" style="fill: var(--color8, #000)" d="M14 26c0 0.276-0.224 0.5-0.5 0.5s-0.5-0.224-0.5-0.5c0-0.276 0.224-0.5 0.5-0.5s0.5 0.224 0.5 0.5z"></path>
</symbol>

</defs>
</svg>
