<svg aria-hidden="true" style="position: absolute; width: 0; height: 0; overflow: hidden;" version="1.1" xmlns="http://www.w3.org/2000/svg" xmlns:xlink="http://www.w3.org/1999/xlink">
<defs>
<symbol id="icon-logo" viewBox="0 0 32 32">
<path stroke-linejoin="round" stroke-linecap="round" stroke-miterlimit="4" stroke-width="2.6667" d="M26.427 2.667h-20.853c-1.605 0-2.907 1.301-2.907 2.907v20.853c0 1.605 1.301 2.907 2.907 2.907h20.853c1.605 0 2.907-1.301 2.907-2.907v-20.853c0-1.605-1.301-2.907-2.907-2.907z"></path>
<path stroke-linejoin="round" stroke-linecap="round" stroke-miterlimit="4" stroke-width="2.6667" d="M9.333 2.667v26.667"></path>
<path stroke-linejoin="round" stroke-linecap="round" stroke-miterlimit="4" stroke-width="2.6667" d="M22.667 2.667v26.667"></path>
<path stroke-linejoin="round" stroke-linecap="round" stroke-miterlimit="4" stroke-width="2.6667" d="M2.667 16h26.667"></path>
<path stroke-linejoin="round" stroke-linecap="round" stroke-miterlimit="4" stroke-width="2.6667" d="M2.667 9.333h6.667"></path>
<path stroke-linejoin="round" stroke-linecap="round" stroke-miterlimit="4" stroke-width="2.6667" d="M2.667 22.667h6.667"></path>
<path stroke-linejoin="round" stroke-linecap="round" stroke-miterlimit="4" stroke-width="2.6667" d="M22.667 22.667h6.667"></path>
<path stroke-linejoin="round" stroke-linecap="round" stroke-miterlimit="4" stroke-width="2.6667" d="M22.667 9.333h6.667"></path>
</symbol>

<symbol id="icon-heart" viewBox="0 0 34 32">
<path fill="#ff6b08" style="fill: var(--color1, #ff6b08)" d="M17.231 31.705l-2.412-2.412c-8.96-7.926-14.818-13.268-14.818-19.815 0-5.342 4.135-9.477 9.477-9.477 2.929 0 5.858 1.378 7.754 3.618 1.895-2.24 4.825-3.618 7.754-3.618 5.342 0 9.477 4.135 9.477 9.477 0 6.548-5.858 11.889-14.818 19.815l-2.412 2.412z"></path>
</symbol>

<symbol id="icon-movie-play" viewBox="0 0 32 32">
<path d="M1.882 29.176h28.235l-0.156-26.353h-28.079v26.353zM20.706 4.706h1.882v1.882h-1.882v-1.882zM26.353 8.471v15.059h-20.706v-15.059h20.706zM15.059 4.706h1.882v1.882h-1.882v-1.882zM9.412 4.706h1.882v1.882h-1.882v-1.882zM3.765 4.706h1.882v1.882h-1.882v-1.882zM5.608 27.294h-1.882v-1.882h1.882v1.882zM11.294 27.294h-1.882v-1.882h1.882v1.882zM16.941 27.294h-1.882v-1.882h1.882v1.882zM22.588 27.294h-1.882v-1.882h1.882v1.882zM28.235 27.294h-1.882v-1.882h1.882v1.882zM28.235 6.588h-1.882v-1.882h1.882v1.882z"></path>
<path d="M13.182 19.511l-0.006-7.275 7.433 3.793-7.428 3.482z"></path>
</symbol>

<symbol id="icon-movie-camera" viewBox="0 0 32 32">
<path fill="#595858" style="fill: var(--color2, #595858)" d="M8 20l-3-4h-2c-1.105 0-2 0.895-2 2v11c0 1.105 0.895 2 2 2h2l3-4h5v-7h-5z"></path>
<path fill="#3a3a3a" style="fill: var(--color3, #3a3a3a)" d="M4 16h0.75v15h-0.75z"></path>
<path fill="#595858" style="fill: var(--color2, #595858)" d="M30.277 18.363l-1.277 0.637h-4v3h4l1.277 0.637c0.332 0.165 0.723-0.075 0.723-0.448v-3.38c0-0.372-0.39-0.615-0.723-0.448z"></path>
<path fill="#3f3f3f" style="fill: var(--color4, #3f3f3f)" d="M16 12h7v7h-7z"></path>
<path fill="#787676" style="fill: var(--color5, #787676)" opacity="0.5" d="M7.875 20h0.75v7h-0.75z"></path>
<path fill="#3a3a3a" style="fill: var(--color3, #3a3a3a)" d="M10.188 20h0.75v7h-0.75z"></path>
<path fill="#504f4f" style="fill: var(--color6, #504f4f)" d="M20 9c0 4.418-3.582 8-8 8s-8-3.582-8-8c0-4.418 3.582-8 8-8s8 3.582 8 8z"></path>
<path fill="#504f4f" style="fill: var(--color6, #504f4f)" d="M30.75 11.5c0 3.038-2.462 5.5-5.5 5.5s-5.5-2.462-5.5-5.5c0-3.038 2.462-5.5 5.5-5.5s5.5 2.462 5.5 5.5z"></path>
<path fill="#504f4f" style="fill: var(--color6, #504f4f)" d="M26 30h-13c-1.105 0-2-0.895-2-2v-9c0-1.105 0.895-2 2-2h13c1.105 0 2 0.895 2 2v9c0 1.105-0.895 2-2 2z"></path>
<path fill="#3a3a3a" style="fill: var(--color3, #3a3a3a)" d="M13.5 23.5c0.275 0 0.5 0.225 0.5 0.5s-0.225 0.5-0.5 0.5-0.5-0.225-0.5-0.5 0.225-0.5 0.5-0.5zM13.5 23c-0.553 0-1 0.448-1 1s0.447 1 1 1 1-0.448 1-1-0.447-1-1-1z"></path>
<path fill="#3a3a3a" style="fill: var(--color3, #3a3a3a)" d="M13.5 25.5c0.275 0 0.5 0.225 0.5 0.5s-0.225 0.5-0.5 0.5-0.5-0.225-0.5-0.5 0.225-0.5 0.5-0.5zM13.5 25c-0.553 0-1 0.448-1 1s0.447 1 1 1 1-0.448 1-1-0.447-1-1-1z"></path>
<path fill="#504f4f" style="fill: var(--color6, #504f4f)" d="M16 26.75c-0.412 0-0.75-0.337-0.75-0.75v-2c0-0.413 0.338-0.75 0.75-0.75h8c0.413 0 0.75 0.337 0.75 0.75v2c0 0.413-0.337 0.75-0.75 0.75h-8z"></path>
<path fill="#3a3a3a" style="fill: var(--color3, #3a3a3a)" d="M24 23.625c0.207 0 0.375 0.168 0.375 0.375v2c0 0.207-0.168 0.375-0.375 0.375h-8c-0.207 0-0.375-0.168-0.375-0.375v-2c0-0.207 0.168-0.375 0.375-0.375h8zM24 22.875h-8c-0.62 0-1.125 0.505-1.125 1.125v2c0 0.62 0.505 1.125 1.125 1.125h8c0.62 0 1.125-0.505 1.125-1.125v-2c0-0.62-0.505-1.125-1.125-1.125z"></path>
<path fill="#504f4f" style="fill: var(--color6, #504f4f)" d="M17.625 9c0 3.107-2.518 5.625-5.625 5.625s-5.625-2.518-5.625-5.625c0-3.107 2.518-5.625 5.625-5.625s5.625 2.518 5.625 5.625z"></path>
<path fill="#3a3a3a" style="fill: var(--color3, #3a3a3a)" d="M12 3.75c2.895 0 5.25 2.355 5.25 5.25s-2.355 5.25-5.25 5.25-5.25-2.355-5.25-5.25 2.355-5.25 5.25-5.25zM12 3c-3.313 0-6 2.688-6 6s2.688 6 6 6 6-2.688 6-6-2.688-6-6-6z"></path>
<path fill="#504f4f" style="fill: var(--color6, #504f4f)" d="M28.375 11.5c0 1.726-1.399 3.125-3.125 3.125s-3.125-1.399-3.125-3.125c0-1.726 1.399-3.125 3.125-3.125s3.125 1.399 3.125 3.125z"></path>
<path fill="#3a3a3a" style="fill: var(--color3, #3a3a3a)" d="M25.25 8.75c1.517 0 2.75 1.232 2.75 2.75s-1.233 2.75-2.75 2.75-2.75-1.232-2.75-2.75 1.233-2.75 2.75-2.75zM25.25 8c-1.933 0-3.5 1.567-3.5 3.5s1.567 3.5 3.5 3.5 3.5-1.567 3.5-3.5-1.567-3.5-3.5-3.5z"></path>
<path fill="#636262" style="fill: var(--color7, #636262)" d="M14 9c0 1.105-0.895 2-2 2s-2-0.895-2-2c0-1.105 0.895-2 2-2s2 0.895 2 2z"></path>
<path fill="#636262" style="fill: var(--color7, #636262)" d="M27.25 11.5c0 1.105-0.895 2-2 2s-2-0.895-2-2c0-1.105 0.895-2 2-2s2 0.895 2 2z"></path>
<path fill="#000" style="fill: var(--color8, #000)" d="M14 24c0 0.276-0.224 0.5-0.5 0.5s-0.5-0.224-0.5-0.5c0-0.276 0.224-0.5 0.5-0.5s0.5 0.224 0.5 0.5z"></path>
<path fill="#000" style="fill: var(--color8, #000)" d="M14 26c0 0.276-0.224 0.5-0.5 0.5s-0.5-0.224-0.5-0.5c0-0.276 0.224-0.5 0.5-0.5s0.5 0.224 0.5 0.5z"></path>

</symbol>
<symbol id="icon-google" viewBox="0 0 32 32">
<path fill="#4285f4" style="fill: var(--color1, #4285f4)" d="M30.080 16.333c0-1.040-0.093-2.040-0.267-3h-13.813v5.68h7.893c-0.347 1.827-1.387 3.373-2.947 4.413v3.693h4.76c2.773-2.56 4.373-6.32 4.373-10.787z"></path>
<path fill="#34a853" style="fill: var(--color2, #34a853)" d="M16 30.667c3.96 0 7.28-1.307 9.707-3.547l-4.76-3.693c-1.307 0.88-2.973 1.413-4.947 1.413-3.813 0-7.053-2.573-8.213-6.040h-4.88v3.787c2.413 4.787 7.36 8.080 13.093 8.080z"></path>
<path fill="#fbbc05" style="fill: var(--color3, #fbbc05)" d="M7.787 18.787c-0.293-0.88-0.467-1.813-0.467-2.787s0.173-1.907 0.467-2.787v-3.787h-4.88c-1 1.973-1.573 4.2-1.573 6.573s0.573 4.6 1.573 6.573l3.8-2.96 1.080-0.827z"></path>
<path fill="#ea4335" style="fill: var(--color4, #ea4335)" d="M16 7.173c2.16 0 4.080 0.747 5.613 2.187l4.2-4.2c-2.547-2.373-5.853-3.827-9.813-3.827-5.733 0-10.68 3.293-13.093 8.093l4.88 3.787c1.16-3.467 4.4-6.040 8.213-6.040z"></path>
</symbol>

<symbol id="icon-fullscreen-exit" viewBox="0 0 32 32">
<path d="M11 0c0.552 0 1 0.448 1 1v0 8c0 1.657-1.343 3-3 3v0h-8c-0.552 0-1-0.448-1-1s0.448-1 1-1v0h8c0.552 0 1-0.448 1-1v0-8c0-0.552 0.448-1 1-1v0zM21 0c0.552 0 1 0.448 1 1v0 8c0 0.552 0.448 1 1 1v0h8c0.552 0 1 0.448 1 1s-0.448 1-1 1v0h-8c-1.657 0-3-1.343-3-3v0-8c0-0.552 0.448-1 1-1v0zM0 21c0-0.552 0.448-1 1-1v0h8c1.657 0 3 1.343 3 3v0 8c0 0.552-0.448 1-1 1s-1-0.448-1-1v0-8c0-0.552-0.448-1-1-1v0h-8c-0.552 0-1-0.448-1-1v0zM20 23c0-1.657 1.343-3 3-3v0h8c0.552 0 1 0.448 1 1s-0.448 1-1 1v0h-8c-0.552 0-1 0.448-1 1v0 8c0 0.552-0.448 1-1 1s-1-0.448-1-1v0-8z"></path>
</symbol>

<symbol id="icon-fullscreen" viewBox="0 0 32 32">
<path d="M3 2c-0.552 0-1 0.448-1 1v0 8c0 0.552-0.448 1-1 1s-1-0.448-1-1v0-8c0-1.657 1.343-3 3-3v0h8c0.552 0 1 0.448 1 1s-0.448 1-1 1v0h-8zM20 1c0-0.552 0.448-1 1-1v0h8c1.657 0 3 1.343 3 3v0 8c0 0.552-0.448 1-1 1s-1-0.448-1-1v0-8c0-0.552-0.448-1-1-1v0h-8c-0.552 0-1-0.448-1-1v0zM1 20c0.552 0 1 0.448 1 1v0 8c0 0.552 0.448 1 1 1v0h8c0.552 0 1 0.448 1 1s-0.448 1-1 1v0h-8c-1.657 0-3-1.343-3-3v0-8c0-0.552 0.448-1 1-1v0zM31 20c0.552 0 1 0.448 1 1v0 8c0 1.657-1.343 3-3 3v0h-8c-0.552 0-1-0.448-1-1s0.448-1 1-1v0h8c0.552 0 1-0.448 1-1v0-8c0-0.552 0.448-1 1-1v0z"></path>
</symbol>

<symbol id="icon-sun-fill" viewBox="0 0 32 32">
<path d="M16.001 8c-4.418 0-8 3.582-8 8s3.582 8 8 8c4.418 0 7.999-3.582 7.999-8s-3.581-8-7.999-8v0zM14 2c0-1.105 0.895-2 2-2s2 0.895 2 2c0 1.105-0.895 2-2 2s-2-0.895-2-2zM4 6c0-1.105 0.895-2 2-2s2 0.895 2 2c0 1.105-0.895 2-2 2s-2-0.895-2-2zM2 14c1.105 0 2 0.895 2 2 0 1.107-0.895 2-2 2s-2-0.893-2-2c0-1.105 0.895-2 2-2zM4 26c0-1.105 0.895-2 2-2s2 0.895 2 2c0 1.105-0.895 2-2 2s-2-0.895-2-2zM14 30c0-1.109 0.895-2 2-2 1.108 0 2 0.891 2 2 0 1.102-0.892 2-2 2-1.105 0-2-0.898-2-2zM24 26c0-1.105 0.895-2 2-2s2 0.895 2 2c0 1.105-0.895 2-2 2s-2-0.895-2-2zM30 18c-1.104 0-2-0.896-2-2 0-1.107 0.896-2 2-2s2 0.893 2 2c0 1.104-0.896 2-2 2zM24 6c0-1.105 0.895-2 2-2s2 0.895 2 2c0 1.105-0.895 2-2 2s-2-0.895-2-2z"></path>
</symbol>

<symbol id="icon-moon-fill" viewBox="0 0 32 32">
<path d="M24.633 22.184c-8.188 0-14.82-6.637-14.82-14.82 0-2.695 0.773-5.188 2.031-7.363-6.824 1.968-11.844 8.187-11.844 15.644 0 9.031 7.32 16.355 16.352 16.355 7.457 0 13.68-5.023 15.648-11.844-2.18 1.254-4.672 2.028-7.367 2.028z"></path>
</symbol>

<symbol id="icon-filter-list" viewBox="0 0 24 24">
<path d="M6 12.984v-1.969h12v1.969h-12zM3 6h18v2.016h-18v-2.016zM9.984 18v-2.016h4.031v2.016h-4.031z"></path>
</symbol>
<symbol id="icon-mail" viewBox="0 0 32 32">
<path d="M4 4c-2.209 0-4 1.791-4 4v0 16.020c0.011 2.201 1.798 3.98 4 3.98 0 0 0 0 0 0h11c0.552 0 1-0.448 1-1s-0.448-1-1-1v0h-11c-0 0-0 0-0 0-0.92 0-1.696-0.622-1.928-1.468l-0.003-0.014 11.28-6.942 2.652 1.59 14-8.4v6.234c0 0.552 0.448 1 1 1s1-0.448 1-1v0-9c0-2.209-1.791-4-4-4v0h-24zM11.416 16.416l-9.416 5.794v-11.444l9.416 5.65zM2 8.434v-0.434c0-1.105 0.895-2 2-2v0h24c1.105 0 2 0.895 2 2v0 0.434l-14 8.4-14-8.4z"></path>
<path d="M28.494 28.538c2.020 0 3.174-1.714 3.174-4.050v-0.42c0-3.208-2.388-6.068-6.628-6.068h-0.070c-4.13 0-6.97 2.72-6.97 6.864v0.428c0 4.348 2.876 6.708 6.716 6.708h0.088c1.188 0 2.036-0.148 2.474-0.35v-1.46c-0.49 0.22-1.346 0.36-2.36 0.36h-0.088c-2.668 0-5.142-1.576-5.142-5.31v-0.314c0-3.314 2.116-5.448 5.28-5.448h0.080c3.070 0 4.968 2.1 4.968 4.652v0.236c0 1.95-0.648 2.78-1.278 2.78-0.464 0-0.82-0.296-0.82-0.84v-4.38h-1.812v1.138h-0.060c-0.168-0.596-0.736-1.26-1.908-1.26-1.556 0-2.518 1.11-2.518 2.8v1.056c0 1.784 0.98 2.868 2.52 2.868 0.942 0 1.792-0.454 2.028-1.286h0.086c0.236 0.84 1.234 1.296 2.24 1.296zM23.588 25.362v-0.454c0-1.092 0.454-1.582 1.146-1.582 0.594 0 1.144 0.384 1.144 1.416v0.734c0 1.146-0.506 1.488-1.128 1.488-0.708 0-1.162-0.43-1.162-1.6z"></path>
</symbol>
<symbol id="icon-github" viewBox="0 0 32 32">
<path d="M16 0c-8.84 0-16 7.16-16 16 0 7.080 4.58 13.060 10.94 15.18 0.8 0.14 1.1-0.34 1.1-0.76 0-0.38-0.020-1.64-0.020-2.98-4.020 0.74-5.060-0.98-5.38-1.88-0.18-0.46-0.96-1.88-1.64-2.26-0.56-0.3-1.36-1.040-0.020-1.060 1.26-0.020 2.16 1.16 2.46 1.64 1.44 2.42 3.74 1.74 4.66 1.32 0.14-1.040 0.56-1.74 1.020-2.14-3.56-0.4-7.28-1.78-7.28-7.9 0-1.74 0.62-3.18 1.64-4.3-0.16-0.4-0.72-2.040 0.16-4.24 0 0 1.34-0.42 4.4 1.64 1.28-0.36 2.64-0.54 4-0.54s2.72 0.18 4 0.54c3.060-2.080 4.4-1.64 4.4-1.64 0.88 2.2 0.32 3.84 0.16 4.24 1.020 1.12 1.64 2.54 1.64 4.3 0 6.14-3.74 7.5-7.3 7.9 0.58 0.5 1.080 1.46 1.080 2.96 0 2.14-0.020 3.86-0.020 4.4 0 0.42 0.3 0.92 1.1 0.76 6.39-2.203 10.899-8.165 10.9-15.18v-0c0-8.84-7.16-16-16-16z"></path>
</symbol>
<symbol id="icon-linkedin" viewBox="0 0 32 32">
<path d="M0 2.292c0-1.266 1.052-2.292 2.35-2.292h27.3c1.298 0 2.35 1.026 2.35 2.292v27.416c0 1.266-1.052 2.292-2.35 2.292h-27.3c-1.298 0-2.35-1.026-2.35-2.292v-27.416zM9.886 26.788v-14.45h-4.802v14.45h4.802zM7.486 10.364c1.674 0 2.716-1.108 2.716-2.496-0.030-1.418-1.040-2.496-2.684-2.496s-2.718 1.080-2.718 2.496c0 1.388 1.042 2.496 2.654 2.496h0.032zM17.302 26.788v-8.070c0-0.432 0.032-0.864 0.16-1.172 0.346-0.862 1.136-1.756 2.464-1.756 1.738 0 2.432 1.324 2.432 3.268v7.73h4.802v-8.288c0-4.44-2.368-6.504-5.528-6.504-2.548 0-3.69 1.4-4.33 2.386v0.050h-0.032c0.037-0.060 0.047-0.076 0.058-0.093l-0.026 0.043v-2.044h-4.8c0.060 1.356 0 14.45 0 14.45h4.8z"></path>
</symbol>
<symbol id="icon-close" viewBox="0 0 32 32">
<path stroke-linejoin="miter" stroke-linecap="butt" stroke-miterlimit="4" stroke-width="2.1333" d="M8.533 8.533l14.933 14.933"></path>
<path stroke-linejoin="miter" stroke-linecap="butt" stroke-miterlimit="4" stroke-width="2.1333" d="M8.533 23.467l14.933-14.933"></path>
</symbol>
</defs>
</svg>
