<!-- Generated by IcoMoon.io -->
<svg version="1.1" xmlns="http://www.w3.org/2000/svg" width="25" height="25" fill='white' viewBox="0 0 32 32">
<title>fullscreen</title>
<path d="M3 2c-0.552 0-1 0.448-1 1v0 8c0 0.552-0.448 1-1 1s-1-0.448-1-1v0-8c0-1.657 1.343-3 3-3v0h8c0.552 0 1 0.448 1 1s-0.448 1-1 1v0h-8zM20 1c0-0.552 0.448-1 1-1v0h8c1.657 0 3 1.343 3 3v0 8c0 0.552-0.448 1-1 1s-1-0.448-1-1v0-8c0-0.552-0.448-1-1-1v0h-8c-0.552 0-1-0.448-1-1v0zM1 20c0.552 0 1 0.448 1 1v0 8c0 0.552 0.448 1 1 1v0h8c0.552 0 1 0.448 1 1s-0.448 1-1 1v0h-8c-1.657 0-3-1.343-3-3v0-8c0-0.552 0.448-1 1-1v0zM31 20c0.552 0 1 0.448 1 1v0 8c0 1.657-1.343 3-3 3v0h-8c-0.552 0-1-0.448-1-1s0.448-1 1-1v0h8c0.552 0 1-0.448 1-1v0-8c0-0.552 0.448-1 1-1v0z"></path>
</svg>
