<!-- Generated by IcoMoon.io -->
<svg version="1.1" xmlns="http://www.w3.org/2000/svg" width="25" height="25" viewBox="0 0 32 32" fill='white'>
<title>fullscreen-exit</title>
<path d="M11 0c0.552 0 1 0.448 1 1v0 8c0 1.657-1.343 3-3 3v0h-8c-0.552 0-1-0.448-1-1s0.448-1 1-1v0h8c0.552 0 1-0.448 1-1v0-8c0-0.552 0.448-1 1-1v0zM21 0c0.552 0 1 0.448 1 1v0 8c0 0.552 0.448 1 1 1v0h8c0.552 0 1 0.448 1 1s-0.448 1-1 1v0h-8c-1.657 0-3-1.343-3-3v0-8c0-0.552 0.448-1 1-1v0zM0 21c0-0.552 0.448-1 1-1v0h8c1.657 0 3 1.343 3 3v0 8c0 0.552-0.448 1-1 1s-1-0.448-1-1v0-8c0-0.552-0.448-1-1-1v0h-8c-0.552 0-1-0.448-1-1v0zM20 23c0-1.657 1.343-3 3-3v0h8c0.552 0 1 0.448 1 1s-0.448 1-1 1v0h-8c-0.552 0-1 0.448-1 1v0 8c0 0.552-0.448 1-1 1s-1-0.448-1-1v0-8z"></path>
</svg>
