<svg xmlns="http://www.w3.org/2000/svg" xml:space="preserve" id="Icons" version="1.1" viewBox="0 0 32 32"><style>.st0{fill:none;stroke:black;stroke-width:2;stroke-linecap:round;stroke-linejoin:round;stroke-miterlimit:10}</style><path d="M17 5c-.27 0-.54.02-.8.04A9.01 9.01 0 0 1 21 13a9 9 0 0 1-9 9c-2.74 0-5.19-1.23-6.85-3.17C6.04 24.59 11 29 17 29c6.63 0 12-5.37 12-12S23.63 5 17 5zM11 9c-2.58.62-3.38 1.42-4 4-.62-2.58-1.42-3.38-4-4 2.58-.62 3.38-1.42 4-4 .62 2.58 1.42 3.38 4 4zM12 14v2M11 15h2" class="st0"/></svg>